<?xml version="1.0" encoding="utf-8"?>
<!-- Generator: Adobe Illustrator 21.1.0, SVG Export Plug-In . SVG Version: 6.00 Build 0)  -->
<svg version="1.1" id="Layer_1" xmlns="http://www.w3.org/2000/svg" xmlns:xlink="http://www.w3.org/1999/xlink" wide="275" height="275"
	 viewBox="0 0 275 275" style="enable-background:new 0 0 275 275;" xml:space="preserve">
<style type="text/css">
	.st0{fill-rule:evenodd;clip-rule:evenodd;fill:#FFF568;}
	.st1{fill-rule:evenodd;clip-rule:evenodd;fill:#C29C07;}
	.st2{fill:#006940;}
	.st3{fill:#C29C07;}
	.st4{fill-rule:evenodd;clip-rule:evenodd;fill:#004FA3;}
	.st5{fill:#FFF568;}
	.st6{fill-rule:evenodd;clip-rule:evenodd;fill:#006940;}
	.st7{fill-rule:evenodd;clip-rule:evenodd;fill:#EF3E33;}
	.st8{fill-rule:evenodd;clip-rule:evenodd;fill:#00A886;}
</style>
<g>
	<g>
		<polygon class="st0" points="137.5,0 137.7,64.1 133.9,64.3 132,22.5 		"/>
		<polygon class="st1" points="125.5,12.9 130.3,64.6 134.4,64.3 132,22.5 		"/>
		<polygon class="st1" points="107.7,38.6 116.3,67.2 119.8,66.4 113.4,40.2 		"/>
		<polygon class="st1" points="115.5,25.5 123.7,66.1 126.8,65.3 121.4,29 		"/>
		<polygon class="st0" points="115.7,25.7 123.7,65.6 120.1,66.4 113.4,40.5 		"/>
		<polygon class="st0" points="107.7,38.7 116.2,67.2 113.1,68.5 104.8,45.6 		"/>
		<polygon class="st1" points="105,45.7 99.1,44.1 109.5,69.6 112.9,68.5 		"/>
		<polygon class="st0" points="125.3,12.5 130.7,64.4 126.8,65.1 121.4,28.8 		"/>
		<polygon class="st1" points="40.7,40.5 85.9,85.6 88.4,83 60.2,51.6 		"/>
		<polygon class="st0" points="57.8,39.9 91.3,81 88.2,83.2 60.2,51.4 		"/>
		<polygon class="st0" points="88.8,45.7 103,72.6 100.1,74.9 85.8,50.3 		"/>
		<polygon class="st0" points="74,42 96.8,76.5 94.1,78.9 72.1,49.3 		"/>
		<polygon class="st1" points="74,41.8 96.8,76.6 100.2,74.7 85.8,50.3 		"/>
		<polygon class="st1" points="88.7,45.7 103.3,72.9 106.6,71.4 96.2,49.1 		"/>
		<polygon class="st0" points="96.2,49.1 99.3,43.9 109.7,69.8 106.3,71.3 		"/>
		<polygon class="st1" points="57.8,40 91.3,80.7 93.9,78.6 72.1,49.3 		"/>
		<polygon class="st0" points="234.8,40.4 189.6,85.8 186.8,83.2 214.8,52.2 		"/>
		<polygon class="st1" points="216.9,40.8 183.9,80.9 187,83.5 214.8,52.1 		"/>
		<polygon class="st1" points="186.3,46.5 172.2,72.7 175.1,74.7 189.1,51.6 		"/>
		<polygon class="st1" points="201.1,42.8 178.2,77.1 180.9,78.8 202.8,49.3 		"/>
		<polygon class="st0" points="201,43 178.3,76.8 175.3,74.9 188.9,51.9 		"/>
		<polygon class="st0" points="186.2,46.5 172,72.6 168.9,71.4 179.5,49.3 		"/>
		<polygon class="st1" points="179.3,49.5 176.4,44.3 165.7,69.6 168.9,71.3 		"/>
		<polygon class="st0" points="217.2,40.5 184.2,80.9 180.9,78.6 202.9,49.3 		"/>
		<polygon class="st1" points="137.5,0.3 137.7,64.3 141.2,64.1 143.5,22.1 		"/>
		<polygon class="st0" points="150,12 144.7,64.9 140.9,64.1 143.7,22 		"/>
		<polygon class="st0" points="167.9,38.2 158.8,67.2 155.4,66.7 162.6,39.1 		"/>
		<polygon class="st0" points="160.1,25.1 151.8,65.6 148.1,65.4 153.4,28.8 		"/>
		<polygon class="st1" points="160.3,25.1 151.8,65.7 155.6,66.7 162.6,39.2 		"/>
		<polygon class="st1" points="167.9,38.1 159,67.5 162.2,68.8 170.7,45.7 		"/>
		<polygon class="st0" points="170.7,45.9 176.6,44.4 165.7,70 162.1,68.5 		"/>
		<polygon class="st1" points="149.9,12.2 144.8,64.6 148.2,64.9 153.6,28.8 		"/>
		<polygon class="st0" points="275,137.5 210.9,137.7 210.7,133.9 252.5,132 		"/>
		<polygon class="st1" points="262.1,125.5 210.4,130.3 210.7,134.4 252.5,132 		"/>
		<polygon class="st1" points="236.4,107.7 207.8,116.3 208.6,119.8 234.8,113.4 		"/>
		<polygon class="st1" points="249.5,115.5 208.9,123.7 209.7,126.8 246,121.4 		"/>
		<polygon class="st0" points="249.3,115.7 209.4,123.7 208.6,120.1 234.5,113.4 		"/>
		<polygon class="st0" points="236.3,107.7 207.8,116.2 206.5,113.1 229.4,105 		"/>
		<polygon class="st1" points="229.3,105 230.9,99.1 205.4,109.5 206.5,113.1 		"/>
		<polygon class="st0" points="262.5,125.5 210.6,130.7 209.9,126.8 246.2,121.6 		"/>
		<polygon class="st1" points="234.5,40.7 189.4,85.9 192,88.4 223.4,60.2 		"/>
		<polygon class="st0" points="235.1,57.8 194,91.3 191.8,88.2 223.6,60.2 		"/>
		<polygon class="st0" points="229.3,88.8 202.3,103 200.1,100.1 224.7,85.8 		"/>
		<polygon class="st0" points="233,74 198.5,96.8 196.1,94.1 225.7,72.1 		"/>
		<polygon class="st1" points="233.2,74 198.4,96.8 200.3,100.2 224.7,85.8 		"/>
		<polygon class="st1" points="229.3,88.7 202.1,103.3 203.6,106.6 225.9,96.2 		"/>
		<polygon class="st0" points="225.9,96.2 231.1,99.3 205.2,109.7 203.7,106.3 		"/>
		<polygon class="st1" points="235,57.8 194.3,91.3 196.4,93.9 225.7,72.1 		"/>
		<polygon class="st0" points="234.6,234.8 189.2,189.6 191.8,186.8 222.8,215 		"/>
		<polygon class="st1" points="234.2,217.1 194.1,183.9 191.5,187 222.9,214.8 		"/>
		<polygon class="st1" points="228.5,186.3 202.3,172.2 200.3,175.1 223.4,189.1 		"/>
		<polygon class="st1" points="232.2,201.1 197.9,178.2 196.2,180.9 225.7,202.8 		"/>
		<polygon class="st0" points="232,201 198.2,178.5 200.1,175.3 223.1,188.9 		"/>
		<polygon class="st0" points="228.5,186.2 202.3,172 203.6,168.9 225.7,179.5 		"/>
		<polygon class="st1" points="225.5,179.3 230.7,176.4 205.4,165.7 203.7,168.9 		"/>
		<polygon class="st0" points="234.5,217.2 194.1,184.2 196.4,180.9 225.7,202.9 		"/>
		<polygon class="st1" points="274.7,137.5 210.7,137.7 210.9,141.2 252.9,143.5 		"/>
		<polygon class="st0" points="263,150.2 210.1,144.7 210.9,140.9 253,143.7 		"/>
		<polygon class="st0" points="236.8,167.9 207.8,158.8 208.3,155.4 235.9,162.6 		"/>
		<polygon class="st0" points="249.9,160.1 209.4,151.8 209.6,148.1 246.2,153.4 		"/>
		<polygon class="st1" points="249.9,160.3 209.3,151.8 208.3,155.6 235.8,162.6 		"/>
		<polygon class="st1" points="236.9,167.9 207.5,159 206.2,162.2 229.3,170.7 		"/>
		<polygon class="st0" points="229.1,170.7 230.6,176.6 205,165.7 206.5,162.1 		"/>
		<polygon class="st1" points="262.8,150 210.4,144.8 210.1,148.2 246.2,153.6 		"/>
		<polygon class="st0" points="137.5,275 137.3,210.9 141.1,210.7 143,252.5 		"/>
		<polygon class="st1" points="149.5,262.1 144.7,210.4 140.6,210.7 143,252.5 		"/>
		<polygon class="st1" points="167.3,236.4 158.7,207.8 155.2,208.6 161.6,234.8 		"/>
		<polygon class="st1" points="159.5,249.5 151.3,208.9 148.2,209.9 153.6,246 		"/>
		<polygon class="st0" points="159.3,249.3 151.3,209.4 154.9,208.6 161.6,234.5 		"/>
		<polygon class="st0" points="167.3,236.3 158.8,207.8 161.9,206.5 170,229.4 		"/>
		<polygon class="st1" points="170,229.3 175.9,230.9 165.5,205.4 161.9,206.5 		"/>
		<polygon class="st0" points="149.5,262.5 144.3,210.6 148.2,209.9 153.4,246.2 		"/>
		<polygon class="st1" points="234.3,234.5 189.1,189.4 186.6,192 214.8,223.4 		"/>
		<polygon class="st0" points="217.2,235.1 183.7,194 186.8,191.8 214.8,223.6 		"/>
		<polygon class="st0" points="186.2,229.3 172,202.4 174.9,200.1 189.2,224.9 		"/>
		<polygon class="st0" points="200.8,233 178.2,198.5 180.9,196.1 202.9,225.7 		"/>
		<polygon class="st1" points="201,233.2 178.2,198.4 174.8,200.3 189.2,224.7 		"/>
		<polygon class="st1" points="186.3,229.3 171.7,202.1 168.4,203.6 178.8,225.9 		"/>
		<polygon class="st0" points="178.8,225.9 175.7,231.1 165.3,205.2 168.7,203.7 		"/>
		<polygon class="st1" points="217.2,235 183.7,194.3 181.1,196.4 202.9,225.7 		"/>
		<polygon class="st0" points="40.2,234.6 85.4,189.2 88.2,191.8 60,222.8 		"/>
		<polygon class="st1" points="57.9,234.2 91.1,194.1 88,191.5 60.2,222.9 		"/>
		<polygon class="st1" points="88.7,228.5 102.8,202.3 99.9,200.3 85.9,223.4 		"/>
		<polygon class="st1" points="73.9,232.2 96.8,197.9 94.1,196.2 72.2,225.7 		"/>
		<polygon class="st0" points="74,232 96.5,198.2 99.7,200.1 86.1,223.1 		"/>
		<polygon class="st0" points="88.8,228.5 103,202.4 106.1,203.6 95.5,225.7 		"/>
		<polygon class="st1" points="95.7,225.5 98.6,230.7 109.3,205.4 106.1,203.7 		"/>
		<polygon class="st0" points="57.8,234.5 90.8,194.1 94.1,196.4 72.1,225.7 		"/>
		<polygon class="st1" points="137.5,274.7 137.3,210.7 133.8,210.9 131.5,252.9 		"/>
		<polygon class="st0" points="124.8,263 130.3,210.1 134.1,210.9 131.3,253 		"/>
		<polygon class="st0" points="107.1,236.8 116.2,207.8 119.6,208.3 112.4,235.9 		"/>
		<polygon class="st0" points="114.9,249.9 123.2,209.4 126.9,209.6 121.6,246.2 		"/>
		<polygon class="st1" points="114.7,249.9 123.2,209.3 119.4,208.3 112.4,235.8 		"/>
		<polygon class="st1" points="107.1,236.9 116,207.5 112.8,206.2 104.3,229.3 		"/>
		<polygon class="st0" points="104.3,229.1 98.4,230.6 109.3,205 112.9,206.5 		"/>
		<polygon class="st1" points="125,262.8 130.2,210.4 126.8,210.1 121.4,246.2 		"/>
		<polygon class="st0" points="0,137.5 64.1,137.3 64.3,141.1 22.5,143 		"/>
		<polygon class="st1" points="12.9,149.5 64.6,144.7 64.3,140.6 22.5,143 		"/>
		<polygon class="st1" points="38.6,167.3 67.2,158.7 66.4,155.2 40.2,161.6 		"/>
		<polygon class="st1" points="25.5,159.5 66.1,151.3 65.1,148.2 29,153.6 		"/>
		<polygon class="st0" points="25.7,159.3 65.6,151.3 66.4,154.9 40.5,161.6 		"/>
		<polygon class="st0" points="38.7,167.3 67.2,158.8 68.5,161.9 45.6,170 		"/>
		<polygon class="st1" points="45.7,170 44.1,175.9 69.6,165.5 68.5,161.9 		"/>
		<polygon class="st0" points="12.5,149.7 64.4,144.3 65.1,148.2 28.8,153.6 		"/>
		<polygon class="st1" points="40.5,234.3 85.6,189.1 83,186.6 51.6,214.8 		"/>
		<polygon class="st0" points="39.9,217.2 81,183.7 83.2,186.8 51.4,214.8 		"/>
		<polygon class="st0" points="45.7,186.2 72.6,172 74.9,174.9 50.3,189.2 		"/>
		<polygon class="st0" points="42,201 76.5,178.2 78.9,180.9 49.3,202.9 		"/>
		<polygon class="st1" points="41.8,201 76.6,178.2 74.7,174.8 50.3,189.2 		"/>
		<polygon class="st1" points="45.7,186.3 72.9,171.7 71.4,168.4 49.1,178.8 		"/>
		<polygon class="st0" points="49.1,178.8 43.9,175.7 69.8,165.3 71.3,168.7 		"/>
		<polygon class="st1" points="40,217.2 80.7,183.7 78.6,181.1 49.3,202.9 		"/>
		<polygon class="st0" points="40.4,40.2 85.8,85.4 83.2,88.4 52.2,60.2 		"/>
		<polygon class="st1" points="40.8,58.1 80.9,91.1 83.5,88 52.1,60.2 		"/>
		<polygon class="st1" points="46.5,88.7 72.7,102.8 74.7,99.9 51.6,85.9 		"/>
		<polygon class="st1" points="42.8,73.9 77.1,96.8 78.8,94.1 49.3,72.2 		"/>
		<polygon class="st0" points="43,74 76.8,96.7 74.9,99.7 51.9,86.1 		"/>
		<polygon class="st0" points="46.5,88.8 72.6,103 71.4,106.1 49.3,95.7 		"/>
		<polygon class="st1" points="49.5,95.7 44.3,98.6 69.6,109.3 71.3,106.1 		"/>
		<polygon class="st0" points="40.5,57.8 80.9,90.8 78.6,94.1 49.3,72.1 		"/>
		<polygon class="st1" points="0.3,137.5 64.3,137.3 64.1,133.8 22.1,131.5 		"/>
		<polygon class="st0" points="12,125 64.9,130.3 64.1,134.1 22,131.3 		"/>
		<polygon class="st0" points="38.2,107.1 67.2,116.2 66.7,119.6 39.1,112.4 		"/>
		<polygon class="st0" points="25.1,114.9 65.6,123.2 65.4,126.9 28.8,121.6 		"/>
		<polygon class="st1" points="25.1,114.7 65.7,123.3 66.7,119.4 39.2,112.4 		"/>
		<polygon class="st1" points="38.1,107.1 67.5,116 68.8,112.8 45.7,104.3 		"/>
		<polygon class="st0" points="45.9,104.3 44.4,98.4 70,109.3 68.5,112.9 		"/>
		<polygon class="st1" points="12.2,125.1 64.6,130.2 64.9,126.8 28.8,121.6 		"/>
	</g>
	<path class="st0" d="M137.5,212.5c41.2,0,74.9-33.7,74.9-75c0-41.2-33.7-74.9-74.9-74.9c-41.2,0-74.9,33.7-74.9,74.9
		C62.6,178.8,96.3,212.5,137.5,212.5"/>
	<path class="st2" d="M149.9,108.4l-0.6-0.2c0,0,0,0,0,0h0h-0.8c-0.1,0-0.1,0.1-0.1,0.1v0.6l-0.1,0.1c0,0,0,0.1,0,0.1v0.6l-0.1,0.3
		c0,0,0,0,0,0.1v0.6l-0.1,0.1c0,0,0,0.1,0,0.1v0.3l-0.1,0.3c0,0,0,0,0,0.1v0.3l-0.1,0.1c0,0,0,0,0,0l-0.2,0.3c0,0,0,0,0,0.1v0.3
		l-0.1,0.1c0,0,0,0,0,0l-0.2,0.3l-0.1,0.1c0,0,0,0,0,0l-0.3,0.7c0,0,0,0,0,0.1v0.1l-0.1,0.3l-0.3,0.3c0,0,0,0,0,0l-0.1,0.3l-0.3,0.1
		c0,0,0,0-0.1,0.1l-0.2,0.3l-0.3,0.3c0,0,0,0,0,0l-0.2,0.3l-0.3,0.3l-0.3,0.2c0,0,0,0-0.1,0.1l-0.2,0.3l-0.3,0.3l-0.3,0.2
		c0,0,0,0,0,0l-0.3,0.3l-0.3,0.2c0,0,0,0,0,0l-0.1,0.1l-0.3,0.2c0,0,0,0,0,0l-0.1,0.1h-0.1c0,0,0,0-0.1,0l-0.7,0.3c0,0,0,0,0,0
		l-0.1,0.1h-0.1c0,0,0,0-0.1,0l-0.3,0.2c0,0,0,0,0,0l-0.1,0.1h-0.3c0,0,0,0-0.1,0l-0.3,0.1h-0.1c0,0,0,0-0.1,0l-0.3,0.1h-0.1
		c0,0,0,0-0.1,0l-0.3,0.1h-0.8c0,0,0,0-0.1,0l-0.3,0.1h-0.1v-14.7c0,0,0-0.1,0-0.1l-0.2-0.4v-2.2c0-0.1-0.1-0.2-0.2-0.2H136
		c-0.1,0-0.2,0.1-0.2,0.2l0,10.8l0.2,0.6v6.1h-0.1l-0.3-0.1c0,0,0,0-0.1,0h-0.8l-0.3-0.1c0,0,0,0-0.1,0h-0.3l-0.1-0.1
		c0,0-0.1,0-0.1,0h-0.3l-0.3-0.2c0,0,0,0-0.1,0h-0.1l-0.3-0.1l-0.1-0.1c0,0-0.1,0-0.1,0h-0.3l-0.1-0.1c0,0,0,0,0,0l-0.3-0.2
		l-0.1-0.1c0,0-0.1,0-0.1,0h-0.3l-0.1-0.1c0,0,0,0,0,0l-0.3-0.2l-0.1-0.1c0,0,0,0,0,0l-0.3-0.2l-0.3-0.3c0,0,0,0,0,0l-0.3-0.2
		l-0.1-0.1l-0.2-0.3c0,0,0,0-0.1-0.1l-0.3-0.2l-0.3-0.3l-0.2-0.3c0,0,0,0,0,0l-0.3-0.3c0,0,0,0,0,0l-0.3-0.1l-0.3-0.6c0,0,0,0,0,0
		l-0.3-0.3l-0.2-0.3c0,0,0,0,0,0l-0.1-0.1l-0.1-0.3v-0.3c0,0,0-0.1-0.1-0.1l-0.3-0.1v-0.3c0,0,0-0.1,0-0.1l-0.1-0.1l-0.1-0.3v-0.3
		c0,0,0,0,0-0.1l-0.2-0.3c0,0,0,0,0,0l-0.1-0.1v-0.3c0,0,0,0,0-0.1l-0.1-0.3v-0.3c0,0,0-0.1,0-0.1l-0.1-0.1v-0.3c0,0,0,0,0-0.1
		l-0.1-0.3v-0.3c0,0,0,0,0-0.1l-0.2-0.3v-0.6c0,0,0,0,0-0.1l-0.1-0.3V108c0,0,0-0.1,0-0.1c0,0-0.1,0-0.1,0l-0.6,0.2h-0.7
		c-0.1,0-0.1,0.1-0.1,0.1v1c0,0,0,0,0,0.1l0.2,0.3v0.5c0,0,0,0,0,0.1l0.1,0.3v0.3c0,0,0,0,0,0.1l0.1,0.3v0.3c0,0,0,0,0,0.1l0.1,0.3
		v0.3c0,0,0,0,0,0.1l0.3,0.6v0.3c0,0,0,0.1,0,0.1l0.1,0.1l0.6,1.3c0,0,0,0,0,0l0.1,0.1l0.5,1c0,0,0,0,0,0l0.1,0.1l0.2,0.3
		c0,0,0,0,0.1,0.1l0.3,0.1l0.1,0.3c0,0,0,0,0,0l0.1,0.1l0.2,0.3c0,0,0,0,0,0l0.7,0.7c0,0,0,0,0,0l0.3,0.1l0.1,0.3c0,0,0,0,0,0
		l0.2,0.2c0,0,0,0,0,0l0.3,0.1l0.1,0.3c0,0,0,0,0.1,0.1l0.6,0.3l0.1,0.1c0,0,0,0,0,0l0.3,0.2l0.1,0.2c0,0,0,0,0,0l0.6,0.3l0.1,0.1
		c0,0,0,0,0,0l0.6,0.3c0,0,0,0,0.1,0h0.1l1,0.5c0,0,0,0,0.1,0h0.1l0.3,0.1c0,0,0,0,0.1,0h0.3l0.3,0.1c0,0,0,0,0.1,0h0.6l0.3,0.1
		c0,0,0,0,0.1,0h0.9l0.1,0.1c0,0,0.1,0,0.1,0h0.7h0.7c0,0,0.1,0,0.1,0l0.1-0.1h0.9c0,0,0,0,0.1,0l0.3-0.1h0.5c0,0,0,0,0.1,0l0.3-0.1
		h0.3c0,0,0,0,0.1,0l0.3-0.1h0.3c0,0,0,0,0.1,0l0.3-0.2c0,0,0,0,0,0l0.1-0.1l0.3-0.1h0.3c0,0,0,0,0.1,0l0.3-0.2c0,0,0,0,0,0l0.1-0.1
		l0.3-0.2c0,0,0,0,0,0l0.1-0.1l0.6-0.3c0,0,0,0,0,0l0.1-0.2l0.3-0.2c0,0,0,0,0,0l0.1-0.1l0.3-0.2c0,0,0,0,0.1-0.1l0.1-0.3l0.3-0.1
		c0,0,0,0,0,0l0.2-0.2c0,0,0,0,0,0l0.1-0.3l0.3-0.1c0,0,0,0,0,0l0.1-0.1l0.3-0.2c0,0,0,0,0.1-0.1l0.2-0.3l0.1-0.1c0,0,0,0,0,0
		l0.3-0.6l0.3-0.1c0,0,0,0,0.1-0.1l0.2-0.3l0.1-0.1c0,0,0,0,0,0l0.3-0.6l0.1-0.1c0,0,0,0,0,0l0.2-0.3l0.1-0.1c0,0,0,0,0,0l0.2-0.5
		c0,0,0,0,0,0v-0.1l0.3-0.6l0.2-0.1c0,0,0,0,0,0l0.2-0.5c0,0,0,0,0,0v-0.1l0.1-0.3c0,0,0,0,0-0.1v-0.3l0.1-0.3c0,0,0,0,0-0.1v-0.3
		l0.1-0.3c0,0,0,0,0-0.1v-0.3l0.1-0.3c0,0,0,0,0-0.1v-0.9l0.1-0.3C150,108.6,150,108.5,149.9,108.4
		C150,108.5,149.9,108.4,149.9,108.4z"/>
	<path class="st3" d="M137.5,217.1c-43.8,0-79.4-35.7-79.4-79.6c0-43.8,35.6-79.4,79.4-79.4c43.8,0,79.4,35.6,79.4,79.4
		C216.9,181.4,181.3,217.1,137.5,217.1z M137.5,67.2c-38.8,0-70.3,31.5-70.3,70.3c0,38.8,31.5,70.4,70.3,70.4
		c38.8,0,70.3-31.6,70.3-70.4C207.8,98.7,176.3,67.2,137.5,67.2z"/>
	<path class="st4" d="M137.5,62.6c-41.3,0-74.9,33.7-74.9,74.9c0,41.3,33.5,75,74.9,75c41.2,0,74.9-33.7,74.9-75
		C212.4,96.3,178.7,62.6,137.5,62.6z M137.5,191.5c-29.6,0-53.9-24.2-53.9-54c0-29.5,24.2-53.7,53.9-53.7s53.9,24.2,53.9,53.7
		C191.4,167.3,167.1,191.5,137.5,191.5z"/>
	<path class="st5" d="M137.5,214.2c-42.2,0-76.6-34.4-76.6-76.7c0-42.2,34.3-76.6,76.6-76.6c42.2,0,76.6,34.3,76.6,76.6
		C214.1,179.8,179.7,214.2,137.5,214.2z M137.5,64.4c-40.3,0-73.1,32.8-73.1,73.1c0,40.4,32.8,73.3,73.1,73.3
		c40.3,0,73.1-32.9,73.1-73.3C210.6,97.2,177.8,64.4,137.5,64.4z M137.5,193.2c-30.6,0-55.6-25-55.6-55.7
		c0-30.6,24.9-55.4,55.6-55.4c30.6,0,55.6,24.9,55.6,55.4C193.1,168.2,168.1,193.2,137.5,193.2z M137.5,85.5
		c-28.8,0-52.1,23.3-52.1,52c0,28.8,23.4,52.3,52.1,52.3s52.1-23.5,52.1-52.3C189.6,108.8,166.3,85.5,137.5,85.5z"/>
	<rect x="131.2" y="146.9" class="st6" width="11.1" height="2.8"/>
	<polygon class="st7" points="119.1,108.7 119.1,93.2 127.6,106.3 125,112.9 	"/>
	<polygon class="st7" points="154.3,108.7 154.3,93.2 145.8,106.3 148.4,112.9 	"/>
	<polygon class="st7" points="132.5,100.4 137,85.6 141.1,100.6 136.8,106.1 	"/>
	<path class="st8" d="M124.5,143.7c-10.7-4.4-18.6-14.8-18.6-27c0-4.2,1-8.3,2.6-12c-1.5,14.8,7.6,25.4,15.9,25.4V143.7z"/>
	<path class="st6" d="M124.5,143.7c-10.7-4.4-18.6-14.8-18.6-27c0-4.2,1-8.3,2.6-12c-5,16.6,6.2,31.4,15.9,31.4V143.7z"/>
	<path class="st6" d="M133.1,140.4c-12.7-1.8-26,3.4-32.9,14.2c-2.3,3.6-3.7,7.6-4.1,11.6c6.7-13.5,21.3-18.1,29.3-14
		C127.2,149.4,129.7,145.6,133.1,140.4"/>
	<path class="st6" d="M133.1,140.4c-12.7-1.8-26,3.4-32.9,14.2c-2.3,3.6-3.7,7.6-4.1,11.6c4.2-16.8,23.1-24.1,32.7-19
		C130.7,144.2,129.7,145.6,133.1,140.4"/>
	<path class="st6" d="M133.9,138c-10.9,4.2-18.5,14.8-18.5,27.2c0,4.2,1,8.3,2.6,11.9c-1.5-14.6,7.6-25.4,15.9-25.4V138z"/>
	<path class="st6" d="M133.9,138c-10.9,4.2-18.5,14.8-18.5,27.2c0,4.2,1,8.3,2.6,11.9c-5-16.4,6-31.2,15.9-31.2V138z"/>
	<path class="st8" d="M148.9,143.7c10.7-4.4,18.5-14.8,18.5-27c0-4.2-1-8.3-2.6-12c1.5,14.8-7.6,25.4-15.9,25.4V143.7z"/>
	<path class="st6" d="M148.9,143.7c10.7-4.4,18.5-14.8,18.5-27c0-4.2-1-8.3-2.6-12c5,16.6-6.2,31.4-15.9,31.4V143.7z"/>
	<path class="st6" d="M140.3,140.4c12.7-1.8,26,3.4,32.9,14.2c2.3,3.6,3.6,7.6,4.1,11.6c-6.8-13.5-21.3-18.1-29.5-14
		C146,149.4,143.7,145.6,140.3,140.4"/>
	<path class="st6" d="M140.3,140.4c12.7-1.8,26,3.4,32.9,14.2c2.3,3.6,3.6,7.6,4.1,11.6c-4.2-16.8-23.1-24.1-32.7-19
		C142.7,144.2,143.7,145.6,140.3,140.4"/>
	<path class="st6" d="M139.5,138c10.7,4.2,18.5,14.8,18.5,27.2c0,4.2-1,8.3-2.6,11.9c1.5-14.6-7.6-25.4-15.9-25.4V138z"/>
	<path class="st6" d="M139.5,138c10.7,4.2,18.5,14.8,18.5,27.2c0,4.2-1,8.3-2.6,11.9c5-16.4-6-31.2-15.9-31.2V138z"/>
	<path class="st6" d="M136.5,139.3c14.2,0,15.3-16.9,5.7-24.4c7,2.3,12,8.8,12,16.3c0,9.1-8.3,16.9-17.7,16.9V139.3z"/>
	<path class="st8" d="M136.5,138.5c14,0,13.5-17.1,5.7-23.6c5.7,2,8.8,7.6,8.8,14.2c0,8.3-6.8,14.5-14.5,14.5V138.5z"/>
	<path class="st8" d="M137,139.3c-14.3,0-15.5-16.9-5.9-24.4c-7,2.3-12,8.8-12,16.3c0,9.1,8.1,16.9,17.9,16.9V139.3z"/>
	<path class="st6" d="M137,138.5c-14.2,0-13.7-17.1-5.9-23.6c-5.7,2-8.8,7.6-8.8,14.2c0,8.3,6.8,14.5,14.6,14.5V138.5z"/>
	<path class="st6" d="M141.4,153.6H132c0,21.3,2.1,32.4-14.2,32.5c6,2.1,12.4,3.3,18.9,3.3c6.5,0,12.9-1.1,18.9-3.3
		C139.3,186,141.4,175.6,141.4,153.6"/>
	<path class="st6" d="M136.8,180.8c-4.9-12.5-4.9-23.9-4.9-27.2c0-3.1,2.3-5.7,4.9-5.7c2.4,0,4.6,2.6,4.6,5.7
		C141.4,156.9,141.6,168.3,136.8,180.8"/>
	<path class="st6" d="M136.7,115.4c4.7,12.7,4.7,23.8,4.7,27c0,3.1-2.1,5.7-4.7,5.7c-2.6,0-4.7-2.6-4.7-5.7
		C132,139.3,132,127.9,136.7,115.4"/>
	<path class="st8" d="M136.8,115.4c0,7.2-0.2,23.8,0,32.7c-2.8,0-4.9-2.6-4.9-5.7C132,139.3,132,127.9,136.8,115.4"/>
	<g>
		<path class="st5" d="M74.4,123.7c0.6-0.3,1-0.7,1.5-1.1c0.3-0.5,0.7-1,1-1.5c0.5-0.6,0.7-1,0.8-1.1c0.2-0.2,0.2-0.2,0.3-0.2h0.3
			c0.3,0.2,0.5,0.3,0.6,0.5c0,0.3,0,0.8-0.2,1.1c-0.2,0.7-0.3,1-0.7,1.1c-0.3,0.3-0.8,0.3-1.3,0.2l-0.7,2.1c1.1,0.3,2,0.2,2.8-0.3
			c0.7-0.3,1.1-1.1,1.5-2.3c0.3-1.3,0.3-2.3,0-3.1c-0.2-0.8-0.8-1.3-1.6-1.6c-0.5,0-0.8-0.2-1.1,0c-0.3,0-0.7,0.2-1,0.3
			c-0.3,0.3-0.8,0.8-1.5,2H75c0,0.2-0.2,0.3-0.2,0.5c-0.6,1-1.3,1.3-1.6,1.3c-0.2-0.2-0.3-0.3-0.5-0.5v-1c0.2-0.5,0.3-0.8,0.6-1
			c0.2-0.2,0.7-0.3,1-0.2l0.6-2.1c-1-0.3-1.6-0.2-2.4,0.3c-0.6,0.5-1.1,1.1-1.5,2.3c-0.3,1-0.3,2,0,2.8c0.3,0.8,1,1.3,1.8,1.5
			C73.4,123.8,73.9,123.8,74.4,123.7z"/>
		<path class="st5" d="M79.2,110.5c0.8,0.3,1.6,0.7,2.3,0.7c0.5,0.2,1,0,1.5,0c1.1-0.3,2.1-1.1,2.8-2.3c0.7-1.3,1-2.4,0.7-3.6
			c-0.5-1.1-1.3-2.1-2.4-2.8c-0.8-0.5-1.6-0.8-2.4-0.8c-0.3-0.2-0.8,0-1.3,0c-1.1,0.3-2.1,1.1-2.8,2.3c-0.8,1.3-1,2.4-0.7,3.6
			C77.1,108.7,77.9,109.7,79.2,110.5z M79.1,105c0.3-0.6,0.8-1,1.5-1h1c0.5,0.2,0.8,0.3,1.1,0.5c0.8,0.5,1.3,1,1.6,1.6
			c0.2,0.7,0.2,1.1-0.2,1.8c-0.3,0.7-0.8,1-1.5,1c-0.3,0.2-0.7,0-1.1,0c-0.3-0.2-0.7-0.3-1-0.5c-0.8-0.5-1.5-1-1.6-1.6
			C78.6,106.3,78.8,105.6,79.1,105z"/>
		<polygon class="st5" points="117,71.9 114.9,72.7 116,75.8 113.1,77 111.8,73.9 109.7,74.7 112.9,83.3 115.2,82.5 113.7,78.8 
			116.8,77.6 118.1,81.2 120.4,80.4 		"/>
		<polygon class="st5" points="103.8,79.9 102.8,78.4 96.3,82.3 97.5,84 99.6,82.5 103.5,88.8 105.4,87.5 101.5,81.4 		"/>
		<polygon class="st5" points="178.2,82.3 176.2,81 171,88.5 173,89.8 		"/>
		<path class="st5" d="M188.1,106.4l1.6-0.3l1.6,2.6l-1.3,1.3l1.3,2.3l2-2.3l4.4-5.2l-1.3-2.1l-3.1,0.5l-6.5,1.1L188.1,106.4z
			 M193.3,105.3l1.6-0.3l-1.6,1.8l-0.6,0.7l-1-1.8L193.3,105.3z"/>
		<path class="st5" d="M183.2,98.6c1,0.2,2-0.2,2.8-0.8l-1.5-1.6c-0.5,0.3-0.8,0.5-1.3,0.5c-0.3-0.2-0.6-0.3-1.1-0.7
			c-0.5-0.5-0.7-1.1-0.5-1.6c0.2-0.7,0.5-1.3,1.1-2c0.6-0.5,1.3-1,2-1c0.7-0.2,1.1,0,1.6,0.5c0.3,0.5,0.5,0.8,0.5,1.1
			c0.2,0.3,0,0.8-0.2,1.1l1.5,1.6c0.6-0.8,1-1.6,1-2.6c-0.2-0.8-0.5-1.8-1.3-2.6c-1-1-2.1-1.5-3.3-1.5c-1.3,0-2.4,0.6-3.4,1.6
			c-1.1,1-1.6,2.1-1.6,3.3c-0.2,1.1,0.3,2.3,1.3,3.3C181.4,98.1,182.4,98.6,183.2,98.6z"/>
		<path class="st5" d="M194.1,119.8l2.8-0.8c0.3,0,0.8-0.2,1.3-0.3c0.5-0.2,1-0.3,1.5-0.6c-0.3,0.5-0.8,0.8-1.1,1.3
			c-0.3,0.3-0.6,0.6-1,1l-2.4,2.6l0.6,2.3l8.8-2.4l-0.7-2.1l-2.3,0.6c-0.3,0-0.8,0.2-1.5,0.3c-0.6,0.3-1.1,0.5-1.8,0.7
			c0.3-0.3,0.6-0.7,1.1-1c0.3-0.5,0.8-0.8,1.1-1.3l2.4-2.4l-0.6-2.4l-9,2.6L194.1,119.8z"/>
		<path class="st5" d="M90.3,98.1c0.5,0.3,1,0.3,1.5,0.3c0.5,0,1-0.2,1.3-0.3c0.5-0.3,1-0.6,1.3-1c0.5-0.5,0.8-1,1-1.5
			c0.2-0.3,0.3-0.8,0.3-1.3c0-0.5,0-1-0.3-1.5c-0.2-0.3-0.5-0.8-1.1-1.3l-3.9-3.9l-1.6,1.8l4.1,3.9c0.5,0.5,0.8,0.8,0.8,1.1
			c0,0.5-0.2,0.8-0.5,1.1c-0.5,0.5-0.8,0.7-1.1,0.7c-0.3,0-0.8-0.3-1.3-0.7l-4.1-4.1l-1.6,1.6l3.9,3.9C89.5,97.6,90,98,90.3,98.1z"
			/>
		<path class="st5" d="M137.8,78.1h2.4l-3.1-9.1h-1.3h-1.3l-3.1,9.3h2.4l0.5-1.8h1.5h1.5L137.8,78.1z M135.9,74.5h-1l0.8-3.1
			l0.2,0.2l1,2.9H135.9z"/>
		<path class="st5" d="M161.9,79.6l1.3,0.7c0.5,0.2,0.7,0.3,0.8,0.7c0.2,0.2,0.2,0.5,0,0.8c0,0.2-0.2,0.5-0.3,1
			c-0.3,0.5-0.3,1-0.5,1.3l1.1,0.5l1.1,0.5l0.2-0.2c-0.2-0.3-0.2-0.7,0.2-1.5c0.2-0.2,0.2-0.5,0.3-0.7c0.2-0.6,0.3-1.1,0.3-1.3
			c-0.2-0.3-0.3-0.7-0.7-1c0.7,0,1.1-0.2,1.5-0.5c0.3-0.2,0.7-0.5,0.8-1c0.3-0.8,0.3-1.5,0-2.1c-0.3-0.7-1-1.1-2.1-1.6l-1.6-0.8
			l-2.3-1l-3.7,8.5l2.1,0.8L161.9,79.6z M163.4,76l1,0.5l0.7,0.3c0.5,0.2,0.8,0.3,0.8,0.6c0.2,0.2,0.2,0.5,0,0.8s-0.3,0.5-0.7,0.6
			c-0.2,0-0.5,0-0.8-0.2l-0.2-0.2l-1.6-0.6L163.4,76z"/>
		<polygon class="st5" points="149.1,75.7 152.6,76.3 153,74.4 149.4,73.7 149.7,71.9 153.9,72.6 154.3,70.8 147.8,69.6 146.1,78.6 
			148.4,79.1 		"/>
		<path class="st5" d="M82.3,167.1c0.8-0.3,1.3-0.8,1.5-1.6c0.3-0.7,0.2-1.5-0.2-2.4l-1.8-3.9l-1.3,0.7l-7,3.1l1,2.1l2.9-1.3
			l0.8,1.8c0.3,1,1,1.5,1.6,1.8c0.2,0.2,0.5,0.2,0.7,0.2C81,167.6,81.7,167.4,82.3,167.1z M80.4,165.2c-0.3-0.2-0.5-0.3-0.7-0.8
			l-0.6-1.3l1.5-0.6l0.7-0.3l0.5,1.5c0.2,0.3,0.3,0.7,0.2,1c0,0.2-0.2,0.5-0.6,0.5c-0.2,0.2-0.5,0.2-0.7,0.2H80.4z"/>
		<polygon class="st5" points="180.5,178.8 178.7,180.5 185,187 185.8,186.3 186.8,185.3 185.8,184.5 		"/>
		<path class="st5" d="M169.4,197.7c-0.2-0.2-0.3-0.3-0.5-0.8c-0.2-0.2-0.2-0.5-0.3-0.7c-0.3-0.5-0.5-1-0.8-1.1
			c-0.3-0.2-0.7-0.2-1-0.2c0.3-0.5,0.5-0.8,0.5-1.3c0.2-0.5,0-0.8-0.2-1.3c-0.3-0.8-1-1.3-1.6-1.5c-0.5-0.2-1.1,0-2,0.3
			c-0.2,0-0.3,0.2-0.6,0.2l-3.9,2l3.9,8.3l0.6-0.3l1.5-0.7l-1.5-3.1l1.3-0.6c0.5-0.2,0.8-0.3,1-0.2c0.3,0,0.5,0.2,0.7,0.5
			c0.2,0.2,0.3,0.5,0.5,1c0.3,0.5,0.5,0.8,0.8,1.1l1.6-0.8l0.6-0.3l-0.2-0.2C169.7,198,169.6,197.9,169.4,197.7z M165.2,194.5
			c-0.2,0.2-0.5,0.5-0.8,0.7l-0.8,0.3l-0.8,0.5l-0.8-2l1.6-0.8c0.3-0.2,0.7-0.2,1-0.2c0.2,0,0.5,0.2,0.7,0.5
			C165.3,193.8,165.3,194.1,165.2,194.5z"/>
		<path class="st5" d="M173.9,184.7l1.6,4.7c0.2,0.5,0.3,0.8,0.3,1c0.2,0.3,0.2,0.5,0.3,0.6c-0.3-0.2-0.7-0.5-1.1-1
			c-0.2,0-0.3-0.2-0.3-0.2l-3.7-3.1l-1.6,1l-0.5,0.3l0.5,0.5l7.5,5.2l1.8-1.1l-2.8-9.4L173.9,184.7z"/>
		<path class="st5" d="M193.2,172.2l-1.3,1.8c0.5,0.3,0.7,0.8,0.7,1.1c0,0.5-0.2,0.8-0.5,1.3c-0.3,0.5-0.8,0.8-1.5,0.8
			c-0.5,0-1.3-0.3-2-0.8c-0.8-0.5-1.1-1-1.5-1.6c-0.2-0.7,0-1.1,0.3-1.8c0.3-0.3,0.5-0.7,1-0.7c0.3-0.2,0.7-0.2,1.1,0l1.3-1.8
			c-1-0.5-1.8-0.6-2.8-0.3c-0.8,0.2-1.6,0.8-2.3,1.6c-0.8,1.1-1,2.3-0.8,3.6c0.2,0.6,0.5,1.1,0.8,1.8c0.3,0.5,0.8,0.8,1.5,1.3
			c1.1,0.8,2.3,1.1,3.4,1c1.3-0.3,2.3-0.8,2.9-2c0.7-1,1-1.8,0.8-2.8C194.5,173.8,194,173,193.2,172.2z"/>
		<polygon class="st5" points="198,166.1 196.2,165.3 197.9,161.4 196.2,160.8 194.5,164.5 193,163.9 194.9,159.6 193.2,159 
			190.4,165.3 198.7,169.1 201.6,162.6 200,161.7 		"/>
		<polygon class="st5" points="152.1,202.8 151.7,201 155.9,199.8 155.4,198 151.3,199.2 150.8,197.5 155.4,196.4 154.9,194.6 
			148.2,196.2 150.4,205.2 157.4,203.4 156.9,201.6 		"/>
		<path class="st5" d="M89.8,178c0.3-0.5,0.7-1,0.8-1.6c0.2-1.1,0-2.3-0.8-3.4c-0.8-1.3-1.8-2-2.9-2.1h-1.1c-0.8,0-1.6,0.3-2.4,1
			c-1.3,0.8-2.1,1.8-2.3,2.9c-0.3,1.1,0,2.4,0.8,3.6c0.8,1.1,1.8,1.8,2.9,2c0.3,0.2,0.7,0.2,1,0.2c0.8-0.2,1.8-0.5,2.6-1
			C89,179,89.5,178.5,89.8,178z M88.5,175.7c-0.2,0.7-0.7,1.1-1.5,1.6c-0.5,0.3-0.8,0.7-1.3,0.7c-0.3,0.2-0.5,0.2-0.8,0.2
			c-0.7,0-1.1-0.3-1.5-1c-0.5-0.6-0.6-1.1-0.3-1.8c0.2-0.5,0.7-1.1,1.5-1.6c0.3-0.3,0.8-0.5,1.1-0.7c0.3,0,0.6-0.2,1-0.2
			c0.5,0.2,1.1,0.5,1.5,1C88.5,174.6,88.7,175.3,88.5,175.7z"/>
		<polygon class="st5" points="98.3,194.1 100.2,195.3 105.3,187.6 103.3,186.3 		"/>
		<path class="st5" d="M143.5,201.6c-0.3-0.3-1.1-0.5-2.3-0.8h-0.2c0-0.2-0.2-0.2-0.3-0.2c-1.1-0.3-1.8-0.8-1.8-1.1
			c0-0.2,0.2-0.5,0.3-0.7c0.2-0.2,0.5-0.2,1-0.2c0.3,0,0.8,0,1,0.2c0.3,0.2,0.5,0.5,0.5,1h2.3c0-1-0.3-1.8-1.1-2.3
			c-0.6-0.5-1.5-0.6-2.6-0.6c-1.1,0-2,0.3-2.6,0.8c-0.5,0.5-0.8,1.3-0.8,2.1c0,0.7,0.3,1.1,0.6,1.5c0.2,0.5,0.7,0.8,1.3,1
			c0.5,0.2,1.1,0.3,1.8,0.5c0.7,0.2,1,0.3,1.1,0.5c0.2,0,0.3,0.2,0.3,0.2c0,0.2,0.2,0.3,0.2,0.5c0,0.2-0.2,0.5-0.5,0.7
			c-0.2,0.2-0.5,0.2-1,0.3c-0.7,0-1-0.2-1.3-0.5c-0.3-0.2-0.5-0.6-0.5-1.1l-2.1,0.2c0.2,1.1,0.5,1.8,1,2.4c0.6,0.5,1.5,0.7,2.8,0.7
			c1.1,0,2.1-0.3,2.9-0.8c0.6-0.5,1-1.3,1-2.1c-0.2-0.5-0.2-0.8-0.3-1.1C144,202.1,143.7,201.8,143.5,201.6z"/>
		<polygon class="st5" points="95.4,179.6 89.8,185.3 89,186.2 89.8,187 93.9,190.9 95.2,189.4 92.1,186.3 97,181.3 		"/>
		<path class="st5" d="M113.6,191.8c-1.1-0.5-2.4-0.7-3.6-0.2c-1.1,0.5-2,1.3-2.6,2.8c-0.7,1.3-0.7,2.4-0.3,3.6
			c0.3,1.1,1.1,2,2.4,2.6c1,0.5,2,0.5,2.8,0.3c1-0.3,1.6-0.8,2.3-1.8l-2-1c-0.3,0.5-0.6,0.6-1,0.8c-0.5,0.2-0.8,0-1.3-0.2
			c-0.7-0.3-1-0.8-1.1-1.3c-0.2-0.6,0-1.3,0.5-2.1c0.3-0.8,0.8-1.5,1.3-1.8c0.7-0.3,1.1-0.3,1.8,0c0.5,0.2,0.8,0.5,1,0.8
			c0.2,0.3,0.2,0.7,0.2,1.1l2,1c0.3-1,0.3-2-0.2-2.8C115.4,193,114.7,192.3,113.6,191.8z"/>
		<polygon class="st5" points="118.8,203.7 125.6,205.4 126.1,203.6 121.6,202.4 122,200.5 126.1,201.6 126.4,199.8 122.4,198.8 
			122.9,197.2 127.2,198.4 127.7,196.6 120.9,194.8 		"/>
	</g>
</g>
</svg>
